<?xml version="1.0" standalone="no"?>
<!DOCTYPE svg PUBLIC "-//W3C//DTD SVG 20010904//EN"
 "http://www.w3.org/TR/2001/REC-SVG-20010904/DTD/svg10.dtd">
<svg version="1.0" xmlns="http://www.w3.org/2000/svg"
 width="900.000000pt" height="620.000000pt" viewBox="0 0 900.000000 620.000000"
 preserveAspectRatio="xMidYMid meet">
<metadata>
Created by potrace 1.16, written by Peter Selinger 2001-2019
</metadata>
<g transform="translate(0.000000,620.000000) scale(0.100000,-0.100000)"
fill="#e6e6fa" stroke="none">
<path d="M3476 5785 c-171 -43 -390 -209 -525 -397 l-34 -48 -82 0 c-148 0
-315 -58 -441 -153 -148 -112 -236 -300 -219 -466 4 -36 9 -70 11 -76 3 -7
-21 -32 -53 -56 -344 -259 -610 -730 -630 -1114 -12 -230 53 -399 187 -485 66
-42 139 -61 226 -58 l72 2 36 -43 c49 -58 100 -99 162 -128 l52 -23 -29 -53
c-42 -78 -62 -176 -55 -267 10 -133 55 -231 151 -325 148 -145 362 -184 555
-101 13 6 16 -5 17 -69 3 -131 52 -246 147 -341 92 -92 204 -142 328 -146 38
-2 68 -3 68 -3 0 -1 -22 -88 -49 -195 -92 -361 -141 -656 -127 -753 8 -53 37
-87 73 -87 78 0 215 240 400 703 68 172 89 214 96 200 5 -10 19 -28 29 -40 20
-21 20 -22 -15 -170 -66 -274 -103 -520 -91 -600 8 -55 37 -93 72 -93 38 0
107 78 170 192 52 95 197 412 208 456 5 18 13 22 43 22 152 0 301 74 405 200
27 32 30 34 40 16 60 -101 173 -191 285 -227 83 -27 212 -29 292 -5 119 35
231 123 290 227 19 32 36 59 39 59 3 0 24 -24 46 -53 31 -38 45 -69 54 -112
23 -118 93 -382 132 -499 78 -236 136 -310 205 -261 12 8 27 31 33 50 20 60
28 241 19 444 -5 107 -6 198 -3 203 3 4 16 8 29 8 13 0 35 4 49 10 23 8 26 7
32 -18 60 -264 145 -538 192 -625 69 -127 158 -107 179 41 15 108 6 476 -18
712 -19 186 -27 415 -16 426 2 2 32 -6 67 -17 90 -28 219 -28 305 1 156 52
284 184 329 339 20 68 21 210 2 272 -8 25 -26 70 -41 98 -14 29 -25 54 -23 56
2 1 28 15 58 30 114 57 222 192 256 319 21 77 18 192 -7 272 -26 84 -92 189
-146 232 l-41 32 73 72 c106 107 155 219 155 356 0 133 -46 244 -141 346 -65
70 -168 131 -241 143 -31 4 -38 9 -32 22 3 9 9 48 11 87 21 288 -210 534 -499
534 -75 0 -78 1 -78 23 0 32 -27 110 -58 166 -33 59 -123 149 -185 185 -107
61 -260 82 -377 51 -30 -8 -55 -15 -56 -15 -1 0 -17 33 -38 74 -79 160 -204
250 -384 276 -145 20 -305 -33 -413 -139 l-58 -56 -40 36 c-56 50 -146 96
-227 115 -118 28 -262 2 -373 -66 -26 -17 -58 -30 -71 -30 -15 0 -51 27 -104
78 -103 99 -203 165 -308 204 -69 26 -101 31 -188 34 -71 2 -124 -1 -164 -11z
m248 -70 c38 -8 97 -28 130 -43 64 -30 204 -130 245 -175 26 -29 28 -28 -49
-48 -213 -54 -408 -231 -491 -443 l-27 -68 -32 60 c-83 156 -255 281 -442 322
l-57 13 32 41 c146 185 315 305 478 341 84 18 129 18 213 0z m1809 -202 c115
-54 204 -155 238 -271 19 -64 29 -69 102 -44 121 41 225 37 333 -12 138 -63
212 -170 251 -361 l8 -40 110 -1 c127 -1 177 -15 259 -69 100 -66 167 -172
187 -294 9 -57 7 -83 -18 -212 -6 -33 11 -47 76 -59 222 -42 380 -268 341
-489 -22 -126 -93 -231 -201 -297 -37 -23 -59 -44 -59 -55 0 -11 22 -35 53
-57 148 -110 214 -255 189 -416 -26 -170 -123 -290 -282 -351 -82 -31 -87 -46
-40 -109 119 -158 98 -407 -47 -549 -144 -142 -340 -166 -522 -66 -56 31 -62
32 -77 17 -15 -14 -15 -26 -6 -91 61 -407 -410 -663 -711 -387 -30 27 -68 76
-86 110 -50 93 -81 93 -111 2 -60 -183 -222 -302 -411 -302 -167 0 -319 100
-390 256 -39 87 -68 85 -114 -5 -24 -47 -88 -115 -143 -150 -72 -46 -150 -64
-251 -59 -106 5 -194 42 -271 114 -61 57 -118 166 -127 242 -7 63 -23 84 -82
106 l-44 17 -51 -34 c-68 -46 -91 -57 -151 -73 -223 -60 -454 74 -520 301 -17
56 -17 100 -2 244 4 46 -25 49 -105 9 -178 -89 -374 -61 -508 72 -149 150
-165 366 -39 561 35 55 31 74 -19 90 -68 22 -134 60 -183 106 l-49 46 39 18
c51 22 117 83 153 139 45 70 75 182 98 366 12 93 26 174 31 180 5 7 7 29 3 50
-7 45 25 251 57 367 12 43 23 76 25 75 1 -2 -4 -64 -12 -138 -33 -319 -5 -642
77 -878 115 -330 327 -560 621 -676 264 -104 623 -111 888 -17 209 73 402 218
517 386 207 305 286 764 219 1265 -8 58 -11 109 -6 113 8 9 43 -125 59 -233 5
-36 15 -137 21 -225 30 -447 41 -519 90 -616 35 -67 117 -143 183 -167 275
-103 500 14 573 298 24 94 22 277 -5 407 -80 387 -337 783 -642 993 l-56 39
-6 88 c-18 249 -157 468 -378 596 -52 31 -177 77 -211 78 -18 0 -13 6 22 22
38 19 62 22 155 22 147 -1 200 -21 300 -116 40 -38 77 -69 84 -69 6 0 30 25
54 55 97 124 209 177 362 172 77 -2 100 -7 158 -34z m-1119 -133 c123 -31 209
-81 306 -179 133 -134 192 -275 192 -461 0 -194 -57 -336 -192 -471 -99 -99
-200 -156 -326 -185 -94 -20 -262 -15 -339 11 -241 81 -410 268 -459 507 -20
98 -20 168 0 266 54 263 258 468 519 522 77 15 218 11 299 -10z m-1412 -124
c256 -50 441 -214 478 -426 39 -224 -120 -447 -380 -534 -120 -40 -279 -47
-402 -17 -191 45 -330 149 -406 301 -36 72 -37 77 -37 185 0 102 2 115 31 175
113 237 419 373 716 316z m2106 -752 c153 -134 269 -288 367 -489 108 -221
149 -377 150 -575 0 -104 -4 -137 -23 -196 -31 -92 -83 -161 -152 -199 -50
-27 -64 -30 -145 -30 -80 0 -97 4 -157 32 -75 35 -114 80 -147 167 -30 80 -39
149 -56 411 -8 132 -18 263 -21 290 -9 83 -43 246 -65 311 l-20 62 26 38 c42
61 71 123 94 202 l22 73 30 -19 c17 -10 60 -45 97 -78z m-1494 -152 c100 -164
265 -287 457 -338 78 -20 250 -23 333 -5 78 17 182 60 239 99 26 17 48 28 51
24 21 -35 36 -457 21 -607 -16 -172 -65 -362 -129 -500 -161 -348 -501 -567
-886 -569 l-115 -1 -29 58 c-26 52 -29 68 -30 160 l-1 102 45 2 c148 9 277 40
373 91 50 27 55 37 33 67 -13 18 -14 18 -47 -3 -89 -54 -207 -83 -343 -83
-173 0 -327 55 -443 156 l-52 46 -18 -27 -17 -27 49 -42 c65 -57 173 -115 265
-141 l75 -22 6 -123 c5 -94 11 -135 27 -171 l21 -47 -47 5 c-93 12 -247 55
-330 94 -432 203 -643 674 -601 1343 8 132 33 334 43 344 1 1 30 -7 65 -17
198 -62 426 -40 616 58 84 44 219 173 253 245 l24 48 27 -79 c15 -43 44 -106
65 -140z m-1354 132 c33 -53 98 -121 148 -156 l23 -16 -45 -133 c-51 -151 -75
-276 -106 -559 -38 -344 -70 -453 -155 -528 -82 -72 -250 -95 -350 -48 -65 30
-127 98 -155 172 -32 81 -39 267 -16 384 51 252 190 521 380 735 63 71 214
205 231 205 6 0 26 -25 45 -56z m1461 -2944 c12 -7 19 -21 19 -40 0 -16 5 -41
10 -55 24 -63 -302 -817 -406 -940 l-26 -30 5 115 c7 155 57 399 158 781 l20
75 63 27 c34 15 78 39 97 52 41 29 36 27 60 15z m2752 -732 c2 -330 -2 -358
-46 -271 -36 71 -89 234 -142 444 -43 170 -46 185 -30 194 45 26 123 97 155
140 l35 47 13 -129 c7 -70 14 -262 15 -425z m-2398 292 c25 -7 45 -16 45 -19
0 -4 -25 -65 -56 -137 -73 -170 -187 -390 -225 -434 l-31 -35 6 110 c5 103 37
287 86 501 l21 92 54 -33 c30 -18 75 -38 100 -45z m1770 39 c28 -10 71 -21 96
-25 l47 -6 7 -167 c8 -184 2 -403 -13 -441 -8 -23 -11 -20 -39 40 -43 90 -84
219 -137 429 -52 203 -53 206 -28 196 9 -5 40 -16 67 -26z"/>
<path d="M3822 4829 c-143 -71 -143 -272 0 -343 61 -31 108 -33 163 -7 111 50
151 199 78 289 -64 80 -156 103 -241 61z"/>
<path d="M3050 4828 c-90 -26 -146 -109 -138 -204 14 -170 230 -236 341 -104
25 29 47 86 47 120 0 60 -53 146 -109 174 -38 20 -101 26 -141 14z"/>
</g>
</svg>
